<svg role="img" aria-labelledby="gx430tLogoTitle" xmlns="http://www.w3.org/2000/svg" version="1.0" xmlns="http://www.w3.org/2000/svg"
 width="1254.000000pt" height="1254.000000pt" viewBox="0 0 1254.000000 1254.000000"
 preserveAspectRatio="xMidYMid meet"><title id="gx430tLogoTitle">GX430T Logo</title>
<metadata>
Created by potrace 1.16, written by Peter Selinger 2001-2019
</metadata>
<g transform="translate(0.000000,1254.000000) scale(0.100000,-0.100000)"
fill="#000000" stroke="none">
<path d="M0 6270 l0 -6270 6270 0 6270 0 0 6270 0 6270 -6270 0 -6270 0 0
-6270z m10023 5558 c-303 -434 -467 -665 -480 -675 -13 -10 -432 -153 -449
-153 -8 0 162 162 486 461 451 417 485 448 493 448 4 1 -18 -36 -50 -81z
m-563 -794 c0 -10 -278 -389 -298 -407 -24 -22 -117 -51 -262 -82 -69 -15
-183 -42 -255 -60 -71 -19 -131 -33 -132 -32 -1 2 91 90 204 197 139 132 223
204 261 224 45 23 447 163 475 165 4 1 7 -2 7 -5z m-3202 -524 c56 -119 124
-324 152 -455 28 -130 37 -385 20 -521 -31 -249 -128 -457 -293 -631 -72 -75
-164 -150 -173 -140 -23 23 -38 206 -25 290 16 93 32 139 112 310 128 273 165
422 156 642 -5 125 -41 313 -65 337 -14 14 -172 -160 -243 -268 -88 -131 -142
-241 -189 -383 -79 -235 -89 -436 -34 -664 9 -37 14 -70 11 -74 -12 -11 -136
40 -174 72 -24 20 -51 59 -69 97 -27 59 -29 71 -28 178 4 433 282 973 665
1295 l91 76 21 -33 c11 -18 40 -76 65 -128z m2720 -143 c-51 -69 -126 -170
-166 -225 l-72 -100 -78 -21 c-42 -12 -140 -31 -217 -42 -175 -24 -419 -67
-488 -84 l-52 -14 115 111 c334 321 324 312 440 351 58 19 164 49 235 66 72
17 184 43 250 59 66 16 121 28 123 26 2 -1 -39 -58 -90 -127z m-348 -463 c0
-3 -73 -105 -161 -226 -120 -162 -170 -224 -193 -233 -47 -20 -202 -43 -401
-60 -189 -16 -451 -56 -532 -80 -26 -8 -49 -13 -51 -11 -1 2 97 99 219 216
155 148 234 217 266 231 96 41 302 85 603 129 118 17 216 33 219 35 6 7 31 6
31 -1z m-1637 -587 c37 -8 70 -17 74 -21 3 -3 -57 -70 -134 -149 -178 -180
-177 -179 -162 -248 28 -134 142 -308 277 -424 73 -63 120 -97 372 -275 250
-176 413 -363 567 -649 211 -391 306 -523 662 -915 115 -127 237 -265 272
-306 162 -193 451 -611 562 -810 32 -58 76 -130 98 -160 75 -103 113 -309 89
-483 -32 -238 -121 -422 -282 -585 -162 -163 -341 -240 -455 -197 -69 27 -122
81 -263 270 -74 98 -153 192 -188 222 -33 29 -63 53 -65 53 -3 0 17 -33 43
-72 27 -40 78 -129 115 -198 85 -157 168 -284 206 -312 16 -12 29 -25 29 -29
0 -13 -100 -29 -183 -29 -216 0 -419 116 -504 288 -38 75 -38 77 -38 199 l0
123 -50 49 c-27 28 -86 70 -130 94 -93 52 -94 55 -43 155 39 78 122 162 191
197 187 91 427 59 582 -77 l43 -38 7 78 c4 52 24 130 61 238 84 255 91 397 29
589 -48 148 -114 253 -333 532 -411 527 -519 686 -670 988 -105 211 -152 283
-233 361 -87 82 -174 131 -380 215 -256 104 -370 171 -498 293 -40 39 -92 98
-116 131 -99 139 -172 331 -181 480 l-5 80 95 175 c88 163 97 175 128 182 52
11 335 0 411 -15z m-1744 -24 c-7 -10 -41 -49 -75 -88 -98 -112 -282 -349
-384 -495 -138 -199 -175 -246 -264 -339 -193 -200 -389 -319 -831 -506 -210
-89 -365 -168 -497 -254 -60 -39 -108 -68 -108 -66 0 10 85 143 147 228 308
428 733 835 1169 1120 255 167 489 289 709 371 136 51 154 55 134 29z m2941
12 c0 -3 -35 -53 -78 -112 -43 -60 -153 -211 -243 -337 -193 -269 -216 -296
-255 -296 -38 0 -22 -12 54 -40 80 -29 114 -68 291 -334 202 -304 294 -468
427 -753 123 -266 218 -447 322 -618 72 -119 100 -169 75 -135 -67 90 -181
241 -254 335 -133 173 -215 292 -380 550 -272 430 -394 603 -562 803 -158 189
-179 209 -239 235 -138 61 -285 180 -358 290 l-40 59 81 89 82 89 97 30 c179
55 354 85 700 120 113 11 212 22 220 24 24 6 60 6 60 1z m-2727 -544 c88 -147
102 -198 102 -366 -1 -135 -2 -144 -38 -250 -21 -60 -90 -219 -153 -353 -134
-284 -175 -386 -214 -537 -91 -356 -57 -701 100 -1011 123 -243 300 -439 535
-595 93 -61 290 -159 390 -192 l69 -23 1 -180 c1 -221 23 -329 165 -844 190
-684 229 -862 260 -1195 16 -171 11 -180 -25 -45 -89 330 -256 728 -449 1075
-108 192 -216 365 -468 745 -263 397 -340 520 -452 723 -243 437 -385 842
-448 1282 -20 142 -17 611 5 755 61 388 188 752 350 998 35 53 88 123 117 155
l53 58 22 -53 c12 -29 47 -95 78 -147z m672 -303 c-20 -323 -57 -612 -126
-1003 -123 -695 -143 -844 -143 -1080 0 -259 34 -427 123 -612 22 -46 38 -83
35 -83 -18 0 -142 96 -213 164 -163 158 -267 339 -324 565 -18 73 -21 116 -22
276 0 321 38 442 323 1025 159 326 230 493 299 702 26 82 49 148 51 148 2 0 1
-46 -3 -102z m-1516 -304 c-69 -157 -160 -482 -199 -707 -112 -661 15 -1352
368 -2002 166 -305 361 -576 826 -1145 220 -269 453 -575 553 -725 481 -725
601 -1304 419 -2025 -29 -116 -112 -366 -136 -409 -4 -7 -5 75 -2 182 7 304
-17 503 -93 767 -104 356 -286 684 -564 1015 -114 135 -383 401 -591 585 -389
342 -439 388 -583 530 -259 253 -402 442 -527 694 -80 163 -118 261 -166 436
-136 493 -121 1059 43 1600 128 425 354 870 598 1178 37 46 69 82 71 79 2 -2
-5 -26 -17 -53z m2006 -316 c96 -58 167 -77 353 -93 92 -8 193 -22 225 -30
178 -46 291 -163 347 -355 31 -108 56 -171 122 -296 32 -61 58 -114 58 -117 0
-3 -39 20 -87 53 -49 32 -121 73 -162 90 -65 28 -90 33 -215 41 -77 5 -160 13
-183 19 -107 26 -218 96 -292 185 -42 50 -121 195 -121 221 0 7 -31 48 -69 90
-76 83 -137 189 -170 298 -12 37 -21 70 -21 73 0 3 35 -28 78 -69 42 -40 104
-90 137 -110z m-2499 -82 c-54 -93 -188 -340 -242 -448 -31 -62 -90 -174 -132
-248 -238 -429 -380 -616 -776 -1029 -262 -274 -368 -415 -473 -628 -31 -62
-58 -113 -61 -113 -10 0 8 375 23 490 94 703 372 1206 860 1555 109 78 212
138 460 268 116 60 242 129 280 153 39 24 74 43 78 44 5 0 -3 -20 -17 -44z
m2501 -579 c125 -200 169 -334 160 -492 -8 -149 -55 -269 -195 -497 -167 -273
-225 -448 -208 -628 l7 -65 -36 40 c-113 128 -164 253 -172 423 -10 192 30
343 167 632 89 189 119 259 149 350 28 88 61 237 61 283 0 20 3 37 8 37 4 0
30 -38 59 -83z m1163 -563 c87 -21 216 -83 298 -141 149 -106 333 -310 451
-500 79 -128 79 -133 6 -64 -237 221 -492 334 -755 334 -137 1 -210 -16 -328
-74 -283 -138 -465 -534 -409 -891 7 -49 10 -88 7 -88 -11 0 -115 44 -290 123
l-165 74 3 34 c8 100 86 273 214 476 135 212 213 391 238 543 18 116 18 116
92 123 34 3 112 18 173 33 194 47 325 52 465 18z m-4281 -424 c-22 -74 -73
-256 -114 -405 -317 -1157 -447 -1949 -433 -2640 2 -118 3 -215 1 -215 -9 0
-128 255 -176 375 -133 333 -198 659 -198 990 -1 344 72 644 232 953 83 162
146 259 394 607 106 149 223 316 260 373 38 56 69 101 71 99 2 -1 -15 -63 -37
-137z m4666 -311 c177 -35 356 -198 435 -398 l21 -53 -33 22 c-52 34 -128 68
-193 85 -77 20 -250 19 -335 -1 -124 -29 -264 -105 -328 -179 -82 -92 -128
-243 -116 -376 l6 -77 -183 93 -184 94 3 33 c5 58 50 214 80 281 83 182 222
328 397 414 148 74 275 92 430 62z m-4671 -616 c26 -248 136 -586 276 -843
207 -380 459 -665 1110 -1257 687 -625 1003 -1024 1194 -1509 134 -341 171
-716 100 -1019 -18 -75 -34 -105 -34 -65 0 48 -82 266 -141 380 -207 394 -519
699 -1189 1160 -346 238 -499 347 -615 435 -527 404 -765 784 -847 1355 -17
125 -14 505 6 685 31 276 111 745 127 745 3 0 9 -30 13 -67z"/>
<path d="M9208 5108 c-179 -125 -170 -425 14 -502 58 -25 96 -21 104 9 10 40
-5 95 -44 165 -34 61 -37 71 -37 150 0 48 7 112 17 148 19 73 13 77 -54 30z"/>
</g>
</svg>
