<svg xmlns="http://www.w3.org/2000/svg" role="img" aria-labelledby="gx430tLogoTitle" version="1.0"
 width="763.396776pt" height="1135.723081pt" viewBox="0 0 763.396776 1135.723081"
 preserveAspectRatio="xMidYMid meet"><title id="gx430tLogoTitle">GX430T Logo</title>
<g transform="translate(-243.927380,1190.947263) scale(0.100000,-0.100000)"
fill="currentColor" stroke="none">
<path d="M9955 11808 c-602 -555 -872 -808 -861 -808 17 0 436 143 449 153 13
10 177 241 480 675 32 45 54 82 50 81 -5 0 -57 -46 -118 -101z"/>
<path d="M9239 10970 c-113 -37 -230 -81 -261 -96 -38 -20 -122 -92 -261 -224
-113 -107 -205 -195 -204 -197 1 -1 61 13 132 32 72 18 186 45 255 60 145 31
238 60 262 82 20 18 298 397 298 407 0 10 -3 9 -221 -64z"/>
<path d="M6081 10595 c-202 -170 -383 -408 -500 -657 -106 -226 -163 -447
-165 -638 -1 -107 1 -119 28 -178 18 -38 45 -77 69 -97 38 -32 162 -83 174
-72 3 4 -2 37 -11 74 -55 228 -45 429 34 664 47 142 101 252 189 383 71 108
229 282 243 268 24 -24 60 -212 65 -337 9 -220 -28 -369 -156 -642 -80 -171
-96 -217 -112 -310 -13 -84 2 -267 25 -290 9 -10 101 65 173 140 165 174 262
382 293 631 17 136 8 391 -20 521 -39 183 -143 462 -217 583 l-21 33 -91 -76z"/>
<path d="M8945 10468 c-66 -16 -178 -42 -250 -59 -71 -17 -177 -47 -235 -66
-116 -39 -106 -30 -440 -351 l-115 -111 52 14 c69 17 313 60 488 84 77 11 175
30 217 42 l78 21 72 100 c40 55 115 156 166 225 51 69 92 126 90 127 -2 2 -57
-10 -123 -26z"/>
<path d="M8599 9905 c-3 -2 -101 -18 -219 -35 -301 -44 -507 -88 -603 -129
-32 -14 -111 -83 -266 -231 -122 -117 -220 -214 -219 -216 2 -2 25 3 51 11 81
24 343 64 532 80 199 17 354 40 401 60 23 9 73 71 193 233 88 121 161 223 161
226 0 7 -25 8 -31 1z"/>
<path d="M6582 9332 c-31 -7 -40 -19 -128 -182 l-95 -175 5 -80 c9 -149 82
-341 181 -480 24 -33 76 -92 116 -131 128 -122 242 -189 498 -293 206 -84 293
-133 380 -215 81 -78 128 -150 233 -361 151 -302 259 -461 670 -988 219 -279
285 -384 333 -532 62 -192 55 -334 -29 -589 -37 -108 -57 -186 -61 -238 l-7
-78 -43 38 c-155 136 -395 168 -582 77 -69 -35 -152 -119 -191 -197 -51 -100
-50 -103 43 -155 44 -24 103 -66 130 -94 l50 -49 0 -123 c0 -122 0 -124 38
-199 85 -172 288 -288 504 -288 83 0 183 16 183 29 0 4 -13 17 -29 29 -38 28
-121 155 -206 312 -37 69 -88 158 -115 198 -26 39 -46 72 -43 72 2 0 32 -24
65 -53 35 -30 114 -124 188 -222 70 -93 147 -188 172 -211 90 -83 180 -93 304
-35 226 106 415 333 488 583 71 248 50 516 -53 658 -22 30 -66 102 -98 160
-111 199 -400 617 -562 810 -35 41 -157 179 -272 306 -356 392 -451 524 -662
915 -154 286 -317 473 -567 649 -252 178 -299 212 -372 275 -135 116 -249 290
-277 424 -15 69 -16 68 162 248 77 79 137 146 134 149 -26 26 -399 54 -485 36z
m2680 -4254 c-10 -36 -17 -100 -17 -148 0 -79 3 -89 37 -150 39 -70 54 -125
44 -165 -8 -30 -46 -34 -104 -9 -145 60 -190 275 -90 425 29 44 110 109 134
109 9 0 8 -16 -4 -62z"/>
<path d="M5115 9264 c-220 -82 -454 -204 -709 -371 -436 -285 -861 -692 -1169
-1120 -62 -85 -147 -218 -147 -228 0 -2 48 27 108 66 132 86 287 165 497 254
442 187 638 306 831 506 89 93 126 140 264 339 102 146 286 383 384 495 88
100 91 105 75 105 -8 -1 -68 -21 -134 -46z"/>
<path d="M8130 9304 c-8 -2 -107 -13 -220 -24 -346 -35 -521 -65 -700 -120
l-97 -30 -82 -89 -81 -89 40 -59 c73 -110 220 -229 358 -290 60 -26 81 -46
239 -235 168 -200 290 -373 562 -803 165 -258 247 -377 380 -550 73 -94 187
-245 254 -335 25 -34 -3 16 -75 135 -104 171 -199 352 -322 618 -133 285 -225
449 -427 753 -177 266 -211 305 -291 334 -76 28 -92 40 -54 40 39 0 62 27 255
296 90 126 200 277 243 337 43 59 78 109 78 112 0 5 -36 5 -60 -1z"/>
<path d="M5310 8903 c-213 -232 -392 -674 -467 -1153 -22 -144 -25 -613 -5
-755 63 -440 205 -845 448 -1282 112 -203 189 -326 452 -723 252 -380 360
-553 468 -745 193 -347 360 -745 449 -1075 36 -135 41 -126 25 45 -31 333 -70
511 -260 1195 -142 515 -164 623 -165 844 l-1 180 -69 23 c-100 33 -297 131
-390 192 -235 156 -412 352 -535 595 -157 310 -191 655 -100 1011 39 151 80
253 214 537 63 134 132 293 153 353 36 106 37 115 38 250 0 168 -14 219 -102
366 -31 52 -66 118 -78 147 l-22 53 -53 -58z"/>
<path d="M6087 8412 c-69 -209 -140 -376 -299 -702 -202 -414 -264 -566 -305
-753 -27 -125 -25 -431 4 -548 57 -226 161 -407 324 -565 71 -68 195 -164 213
-164 3 0 -13 37 -35 83 -89 185 -123 353 -123 612 0 236 20 385 143 1080 55
310 83 512 105 745 17 181 29 360 24 360 -2 0 -25 -66 -51 -148z"/>
<path d="M4565 8128 c-244 -308 -470 -753 -598 -1178 -164 -541 -179 -1107
-43 -1600 48 -175 86 -273 166 -436 125 -252 268 -441 527 -694 144 -142 194
-188 583 -530 208 -184 477 -450 591 -585 278 -331 460 -659 564 -1015 76
-264 100 -463 93 -767 -3 -107 -2 -189 2 -182 24 43 107 293 136 409 182 721
62 1300 -419 2025 -100 150 -333 456 -553 725 -465 569 -660 840 -826 1145
-353 650 -480 1341 -368 2002 39 225 130 550 199 707 12 27 19 51 17 53 -2 3
-34 -33 -71 -79z"/>
<path d="M6410 8017 c0 -3 9 -36 21 -73 33 -109 94 -215 170 -298 38 -42 69
-83 69 -90 0 -26 79 -171 121 -221 74 -89 185 -159 292 -185 23 -6 106 -14
183 -19 125 -8 150 -13 215 -41 41 -17 113 -58 162 -90 48 -33 87 -56 87 -53
0 3 -26 56 -58 117 -66 125 -91 188 -122 296 -56 192 -169 309 -347 355 -32 8
-133 22 -225 30 -249 22 -339 59 -490 203 -43 41 -78 72 -78 69z"/>
<path d="M4065 7756 c-38 -24 -164 -93 -280 -153 -248 -130 -351 -190 -460
-268 -488 -349 -766 -852 -860 -1555 -15 -115 -33 -490 -23 -490 3 0 30 51 61
113 105 213 211 354 473 628 396 413 538 600 776 1029 42 74 101 186 132 248
54 108 188 355 242 448 14 24 22 44 17 44 -4 -1 -39 -20 -78 -44z"/>
<path d="M6560 7223 c0 -46 -33 -195 -61 -283 -30 -91 -60 -161 -149 -350
-137 -289 -177 -440 -167 -632 8 -170 59 -295 172 -423 l36 -40 -7 65 c-17
180 41 355 208 628 140 228 187 348 195 497 6 116 -14 213 -67 324 -45 92
-141 250 -152 251 -5 0 -8 -17 -8 -37z"/>
<path d="M7500 6630 c-36 -4 -115 -20 -175 -34 -61 -15 -139 -30 -173 -33 -74
-7 -74 -7 -92 -123 -25 -152 -103 -331 -238 -543 -128 -203 -206 -376 -214
-476 l-3 -34 165 -74 c175 -79 279 -123 290 -123 3 0 0 39 -7 88 -56 357 126
753 409 891 118 58 191 75 328 74 263 0 518 -113 755 -334 73 -69 73 -64 -6
64 -118 190 -302 394 -451 500 -82 58 -211 120 -298 141 -83 20 -207 27 -290
16z"/>
<path d="M3475 6228 c-37 -57 -154 -224 -260 -373 -248 -348 -311 -445 -394
-607 -160 -309 -233 -609 -232 -953 0 -331 65 -657 198 -990 48 -120 167 -375
176 -375 2 0 1 97 -1 215 -14 691 116 1483 433 2640 41 149 92 331 114 405 22
74 39 136 37 137 -2 2 -33 -43 -71 -99z"/>
<path d="M7978 5889 c-258 -28 -510 -223 -630 -486 -30 -67 -75 -223 -80 -281
l-3 -33 184 -94 183 -93 -6 77 c-12 133 34 284 116 376 64 74 204 150 328 179
85 20 258 21 335 1 65 -17 141 -51 193 -85 l33 -22 -21 53 c-38 97 -82 163
-160 240 -134 133 -287 188 -472 168z"/>
<path d="M3452 5163 c-76 -398 -105 -660 -105 -953 -1 -289 21 -449 90 -665
97 -304 278 -574 545 -815 166 -149 314 -259 838 -620 670 -461 982 -766 1189
-1160 59 -114 141 -332 141 -380 0 -40 16 -10 34 65 107 456 -24 1009 -359
1510 -208 312 -457 583 -935 1018 -651 592 -903 877 -1110 1257 -140 257 -250
595 -276 843 -4 37 -10 67 -13 67 -4 0 -22 -75 -39 -167z"/>
</g>
</svg>
